<mxfile host="Electron" agent="Mozilla/5.0 (Windows NT 10.0; Win64; x64) AppleWebKit/537.36 (KHTML, like Gecko) draw.io/27.0.2 Chrome/134.0.6998.205 Electron/35.3.0 Safari/537.36" version="27.0.2">
  <diagram name="Page-1" id="iMtaJnxz2LHdPqc4hrHA">
    <mxGraphModel dx="1056" dy="623" grid="0" gridSize="10" guides="1" tooltips="1" connect="1" arrows="1" fold="1" page="1" pageScale="1" pageWidth="1169" pageHeight="827" math="0" shadow="0">
      <root>
        <mxCell id="0" />
        <mxCell id="1" parent="0" />
        <mxCell id="NmurebP0-gkGouxVgUCg-83" value="&lt;font style=&quot;color: rgb(0, 0, 0);&quot;&gt;Azure Cloud&lt;/font&gt;" style="fillColor=#0078D4;strokeColor=#0078D4;verticalAlign=top;fontStyle=0;fontColor=#147EBA;whiteSpace=wrap;html=1;align=left;" vertex="1" parent="1">
          <mxGeometry x="193" y="20" width="889" height="532" as="geometry" />
        </mxCell>
        <mxCell id="NmurebP0-gkGouxVgUCg-1" value="Resource group" style="fillColor=#E6F2FF;strokeColor=#147EBA;dashed=1;verticalAlign=top;fontStyle=0;fontColor=#147EBA;whiteSpace=wrap;html=1;align=left;dashPattern=8 8;" vertex="1" parent="1">
          <mxGeometry x="240" y="50" width="830" height="490" as="geometry" />
        </mxCell>
        <mxCell id="NmurebP0-gkGouxVgUCg-14" value="&lt;font style=&quot;color: rgb(0, 0, 0);&quot;&gt;Virtual Network&lt;/font&gt;" style="fillColor=#B3E0FF;strokeColor=#147EBA;dashed=1;verticalAlign=top;fontStyle=0;fontColor=#147EBA;whiteSpace=wrap;html=1;align=left;dashPattern=8 8;" vertex="1" parent="1">
          <mxGeometry x="370" y="80" width="680" height="440" as="geometry" />
        </mxCell>
        <mxCell id="NmurebP0-gkGouxVgUCg-22" value="Subnet&amp;nbsp;10.0.0.0/16" style="fillColor=#D4E6F1;strokeColor=#D4E6F1;dashed=1;verticalAlign=top;fontStyle=0;fontColor=#147EBA;whiteSpace=wrap;html=1;align=left;" vertex="1" parent="1">
          <mxGeometry x="440" y="122.5" width="590" height="377.5" as="geometry" />
        </mxCell>
        <mxCell id="NmurebP0-gkGouxVgUCg-4" value="" style="html=1;verticalLabelPosition=bottom;align=center;labelBackgroundColor=#ffffff;verticalAlign=top;strokeWidth=2;strokeColor=#0080F0;shadow=0;dashed=0;shape=mxgraph.ios7.icons.cloud;fillColor=#3399FF;" vertex="1" parent="1">
          <mxGeometry x="86" y="229" width="70" height="40" as="geometry" />
        </mxCell>
        <mxCell id="NmurebP0-gkGouxVgUCg-5" value="" style="image;sketch=0;aspect=fixed;html=1;points=[];align=center;fontSize=12;image=img/lib/mscae/ResourceGroup.svg;" vertex="1" parent="1">
          <mxGeometry x="250" y="80" width="50" height="40" as="geometry" />
        </mxCell>
        <mxCell id="NmurebP0-gkGouxVgUCg-8" value="" style="group" vertex="1" connectable="0" parent="1">
          <mxGeometry x="269" y="224" width="60" height="80" as="geometry" />
        </mxCell>
        <mxCell id="NmurebP0-gkGouxVgUCg-6" value="" style="image;aspect=fixed;html=1;points=[];align=center;fontSize=12;image=img/lib/azure2/networking/Public_IP_Addresses_Classic.svg;" vertex="1" parent="NmurebP0-gkGouxVgUCg-8">
          <mxGeometry x="4.149999999999977" width="51.69" height="42" as="geometry" />
        </mxCell>
        <mxCell id="NmurebP0-gkGouxVgUCg-7" value="Public IP" style="text;html=1;align=center;verticalAlign=middle;whiteSpace=wrap;rounded=0;" vertex="1" parent="NmurebP0-gkGouxVgUCg-8">
          <mxGeometry y="50" width="60" height="30" as="geometry" />
        </mxCell>
        <mxCell id="NmurebP0-gkGouxVgUCg-13" value="" style="group" vertex="1" connectable="0" parent="1">
          <mxGeometry x="410" y="220" width="60" height="80" as="geometry" />
        </mxCell>
        <mxCell id="NmurebP0-gkGouxVgUCg-9" value="" style="image;aspect=fixed;html=1;points=[];align=center;fontSize=12;image=img/lib/azure2/networking/Application_Gateway_Containers.svg;" vertex="1" parent="NmurebP0-gkGouxVgUCg-13">
          <mxGeometry x="3.5400000000000205" width="52.93" height="50" as="geometry" />
        </mxCell>
        <mxCell id="NmurebP0-gkGouxVgUCg-10" value="" style="group" vertex="1" connectable="0" parent="NmurebP0-gkGouxVgUCg-13">
          <mxGeometry width="60" height="80" as="geometry" />
        </mxCell>
        <mxCell id="NmurebP0-gkGouxVgUCg-12" value="NAT GATEWAY" style="text;html=1;align=center;verticalAlign=middle;whiteSpace=wrap;rounded=0;" vertex="1" parent="NmurebP0-gkGouxVgUCg-10">
          <mxGeometry y="50" width="60" height="30" as="geometry" />
        </mxCell>
        <mxCell id="NmurebP0-gkGouxVgUCg-21" value="" style="group" vertex="1" connectable="0" parent="1">
          <mxGeometry x="410" y="360" width="60" height="89" as="geometry" />
        </mxCell>
        <mxCell id="NmurebP0-gkGouxVgUCg-19" value="" style="image;aspect=fixed;html=1;points=[];align=center;fontSize=12;image=img/lib/azure2/networking/Network_Security_Groups.svg;" vertex="1" parent="NmurebP0-gkGouxVgUCg-21">
          <mxGeometry x="10.230000000000018" width="39.53" height="48" as="geometry" />
        </mxCell>
        <mxCell id="NmurebP0-gkGouxVgUCg-20" value="Network security group" style="text;html=1;align=center;verticalAlign=middle;whiteSpace=wrap;rounded=0;" vertex="1" parent="NmurebP0-gkGouxVgUCg-21">
          <mxGeometry y="59" width="60" height="30" as="geometry" />
        </mxCell>
        <mxCell id="NmurebP0-gkGouxVgUCg-23" value="" style="rounded=1;arcSize=2;dashed=1;strokeColor=#6c8ebf;fillColor=#dae8fc;dashPattern=8 4;strokeWidth=2;" vertex="1" parent="1">
          <mxGeometry x="480" y="160" width="530" height="320" as="geometry" />
        </mxCell>
        <mxCell id="NmurebP0-gkGouxVgUCg-25" value="Virtual Machine: Ubuntu jummy" style="text;html=1;align=center;verticalAlign=middle;whiteSpace=wrap;rounded=0;" vertex="1" parent="1">
          <mxGeometry x="487" y="166" width="188" height="30" as="geometry" />
        </mxCell>
        <mxCell id="NmurebP0-gkGouxVgUCg-26" value="" style="rounded=1;arcSize=0;dashed=1;strokeColor=#82b366;fillColor=#d5e8d4;dashPattern=8 4;strokeWidth=2;movable=0;resizable=0;rotatable=0;deletable=0;editable=0;locked=1;connectable=0;" vertex="1" parent="1">
          <mxGeometry x="499" y="204" width="476" height="252" as="geometry" />
        </mxCell>
        <mxCell id="NmurebP0-gkGouxVgUCg-27" value="Dockerized Envirnment" style="text;html=1;align=center;verticalAlign=middle;whiteSpace=wrap;rounded=0;" vertex="1" parent="1">
          <mxGeometry x="524" y="204" width="188" height="30" as="geometry" />
        </mxCell>
        <mxCell id="NmurebP0-gkGouxVgUCg-34" value="" style="group" vertex="1" connectable="0" parent="1">
          <mxGeometry x="509" y="356" width="160" height="88" as="geometry" />
        </mxCell>
        <mxCell id="NmurebP0-gkGouxVgUCg-28" value="" style="ellipse;shape=cloud;whiteSpace=wrap;html=1;fillColor=#C8E6C9;" vertex="1" parent="NmurebP0-gkGouxVgUCg-34">
          <mxGeometry x="4" y="9" width="156" height="79" as="geometry" />
        </mxCell>
        <mxCell id="NmurebP0-gkGouxVgUCg-31" value="Client Network&lt;div&gt;192.168.1.0/24&lt;/div&gt;" style="text;html=1;align=center;verticalAlign=middle;whiteSpace=wrap;rounded=0;" vertex="1" parent="NmurebP0-gkGouxVgUCg-34">
          <mxGeometry x="49.6551724137931" y="34.22222222222222" width="55.172413793103445" height="24.444444444444443" as="geometry" />
        </mxCell>
        <mxCell id="NmurebP0-gkGouxVgUCg-35" value="" style="group" vertex="1" connectable="0" parent="1">
          <mxGeometry x="671" y="367" width="157.5" height="82.5" as="geometry" />
        </mxCell>
        <mxCell id="NmurebP0-gkGouxVgUCg-30" value="" style="ellipse;shape=cloud;whiteSpace=wrap;html=1;fillColor=#FFF9C4;" vertex="1" parent="NmurebP0-gkGouxVgUCg-35">
          <mxGeometry width="157.5" height="82.5" as="geometry" />
        </mxCell>
        <mxCell id="NmurebP0-gkGouxVgUCg-32" value="CA-&lt;span style=&quot;background-color: transparent; color: light-dark(rgb(0, 0, 0), rgb(255, 255, 255));&quot;&gt;Network&lt;/span&gt;&lt;div&gt;&lt;div&gt;192.168.2.0/24&lt;/div&gt;&lt;/div&gt;" style="text;html=1;align=center;verticalAlign=middle;whiteSpace=wrap;rounded=0;" vertex="1" parent="NmurebP0-gkGouxVgUCg-35">
          <mxGeometry x="17.2478386167147" y="27.133333333333333" width="117.10374639769452" height="22.000000000000004" as="geometry" />
        </mxCell>
        <mxCell id="NmurebP0-gkGouxVgUCg-36" value="" style="group" vertex="1" connectable="0" parent="1">
          <mxGeometry x="824" y="367" width="145" height="77" as="geometry" />
        </mxCell>
        <mxCell id="NmurebP0-gkGouxVgUCg-29" value="" style="ellipse;shape=cloud;whiteSpace=wrap;html=1;fillColor=#FFCDD2;" vertex="1" parent="NmurebP0-gkGouxVgUCg-36">
          <mxGeometry width="145" height="77" as="geometry" />
        </mxCell>
        <mxCell id="NmurebP0-gkGouxVgUCg-33" value="Web-&lt;span style=&quot;background-color: transparent; color: light-dark(rgb(0, 0, 0), rgb(255, 255, 255));&quot;&gt;Network&lt;/span&gt;&lt;div&gt;&lt;div&gt;192.168.3.0/24&lt;/div&gt;&lt;/div&gt;" style="text;html=1;align=center;verticalAlign=middle;whiteSpace=wrap;rounded=0;" vertex="1" parent="NmurebP0-gkGouxVgUCg-36">
          <mxGeometry x="17.791411042944787" y="29.982300884955748" width="114.75460122699387" height="20.442477876106196" as="geometry" />
        </mxCell>
        <mxCell id="NmurebP0-gkGouxVgUCg-37" value="" style="image;sketch=0;aspect=fixed;html=1;points=[];align=center;fontSize=12;image=img/lib/mscae/Docker.svg;" vertex="1" parent="1">
          <mxGeometry x="505" y="204" width="41.46" height="34" as="geometry" />
        </mxCell>
        <mxCell id="NmurebP0-gkGouxVgUCg-44" value="" style="group" vertex="1" connectable="0" parent="1">
          <mxGeometry x="551" y="282" width="60" height="74" as="geometry" />
        </mxCell>
        <mxCell id="NmurebP0-gkGouxVgUCg-42" value="" style="points=[];aspect=fixed;html=1;align=center;shadow=0;dashed=0;fillColor=light-dark(#ffffff, #e9690e);strokeColor=none;shape=mxgraph.alibaba_cloud.ahas_application_high_availability_service;" vertex="1" parent="NmurebP0-gkGouxVgUCg-44">
          <mxGeometry x="10.950000000000045" width="38.1" height="44" as="geometry" />
        </mxCell>
        <mxCell id="NmurebP0-gkGouxVgUCg-43" value="nat-masquerad" style="text;html=1;align=center;verticalAlign=middle;whiteSpace=wrap;rounded=0;" vertex="1" parent="NmurebP0-gkGouxVgUCg-44">
          <mxGeometry y="44" width="60" height="30" as="geometry" />
        </mxCell>
        <mxCell id="NmurebP0-gkGouxVgUCg-47" value="" style="group" vertex="1" connectable="0" parent="1">
          <mxGeometry x="707" y="240" width="60" height="74" as="geometry" />
        </mxCell>
        <mxCell id="NmurebP0-gkGouxVgUCg-48" value="" style="points=[];aspect=fixed;html=1;align=center;shadow=0;dashed=0;fillColor=light-dark(#ffffff, #e9690e);strokeColor=none;shape=mxgraph.alibaba_cloud.ahas_application_high_availability_service;" vertex="1" parent="NmurebP0-gkGouxVgUCg-47">
          <mxGeometry x="10.950000000000045" width="38.1" height="44" as="geometry" />
        </mxCell>
        <mxCell id="NmurebP0-gkGouxVgUCg-49" value="DNS" style="text;html=1;align=center;verticalAlign=middle;whiteSpace=wrap;rounded=0;" vertex="1" parent="NmurebP0-gkGouxVgUCg-47">
          <mxGeometry y="44" width="60" height="30" as="geometry" />
        </mxCell>
        <mxCell id="NmurebP0-gkGouxVgUCg-56" value="" style="group" vertex="1" connectable="0" parent="1">
          <mxGeometry x="855" y="288" width="60" height="74" as="geometry" />
        </mxCell>
        <mxCell id="NmurebP0-gkGouxVgUCg-57" value="" style="points=[];aspect=fixed;html=1;align=center;shadow=0;dashed=0;fillColor=light-dark(#ffffff, #e9690e);strokeColor=none;shape=mxgraph.alibaba_cloud.ahas_application_high_availability_service;" vertex="1" parent="NmurebP0-gkGouxVgUCg-56">
          <mxGeometry x="10.950000000000045" width="38.1" height="44" as="geometry" />
        </mxCell>
        <mxCell id="NmurebP0-gkGouxVgUCg-58" value="WEB" style="text;html=1;align=center;verticalAlign=middle;whiteSpace=wrap;rounded=0;" vertex="1" parent="NmurebP0-gkGouxVgUCg-56">
          <mxGeometry y="44" width="60" height="30" as="geometry" />
        </mxCell>
        <mxCell id="NmurebP0-gkGouxVgUCg-59" value="" style="group;align=left;" vertex="1" connectable="0" parent="1">
          <mxGeometry x="749" y="310" width="101" height="74" as="geometry" />
        </mxCell>
        <mxCell id="NmurebP0-gkGouxVgUCg-60" value="" style="points=[];aspect=fixed;html=1;align=center;shadow=0;dashed=0;fillColor=light-dark(#ffffff, #e9690e);strokeColor=none;shape=mxgraph.alibaba_cloud.ahas_application_high_availability_service;" vertex="1" parent="NmurebP0-gkGouxVgUCg-59">
          <mxGeometry x="14.74600000000006" width="38.1" height="44" as="geometry" />
        </mxCell>
        <mxCell id="NmurebP0-gkGouxVgUCg-61" value="intermediate-ca" style="text;html=1;align=center;verticalAlign=middle;whiteSpace=wrap;rounded=0;" vertex="1" parent="NmurebP0-gkGouxVgUCg-59">
          <mxGeometry x="-9" y="44" width="101" height="30" as="geometry" />
        </mxCell>
        <mxCell id="NmurebP0-gkGouxVgUCg-64" value="" style="group" vertex="1" connectable="0" parent="1">
          <mxGeometry x="664" y="310" width="60" height="74" as="geometry" />
        </mxCell>
        <mxCell id="NmurebP0-gkGouxVgUCg-65" value="" style="points=[];aspect=fixed;html=1;align=center;shadow=0;dashed=0;fillColor=light-dark(#ffffff, #e9690e);strokeColor=none;shape=mxgraph.alibaba_cloud.ahas_application_high_availability_service;" vertex="1" parent="NmurebP0-gkGouxVgUCg-64">
          <mxGeometry x="10.950000000000045" width="38.1" height="44" as="geometry" />
        </mxCell>
        <mxCell id="NmurebP0-gkGouxVgUCg-66" value="Root-ca" style="text;html=1;align=center;verticalAlign=middle;whiteSpace=wrap;rounded=0;" vertex="1" parent="NmurebP0-gkGouxVgUCg-64">
          <mxGeometry y="44" width="60" height="30" as="geometry" />
        </mxCell>
        <mxCell id="NmurebP0-gkGouxVgUCg-80" style="edgeStyle=orthogonalEdgeStyle;rounded=0;orthogonalLoop=1;jettySize=auto;html=1;startArrow=classic;startFill=1;" edge="1" parent="1" source="NmurebP0-gkGouxVgUCg-6" target="NmurebP0-gkGouxVgUCg-9">
          <mxGeometry relative="1" as="geometry" />
        </mxCell>
        <mxCell id="NmurebP0-gkGouxVgUCg-81" style="edgeStyle=orthogonalEdgeStyle;rounded=0;orthogonalLoop=1;jettySize=auto;html=1;entryX=0.009;entryY=0.592;entryDx=0;entryDy=0;entryPerimeter=0;startArrow=classic;startFill=1;" edge="1" parent="1" source="NmurebP0-gkGouxVgUCg-4" target="NmurebP0-gkGouxVgUCg-6">
          <mxGeometry relative="1" as="geometry" />
        </mxCell>
        <mxCell id="NmurebP0-gkGouxVgUCg-82" value="Internet" style="text;html=1;align=center;verticalAlign=middle;whiteSpace=wrap;rounded=0;" vertex="1" parent="1">
          <mxGeometry x="91" y="282" width="60" height="30" as="geometry" />
        </mxCell>
      </root>
    </mxGraphModel>
  </diagram>
</mxfile>
